<mxfile host="app.diagrams.net" modified="2023-12-06T00:16:55.514Z" agent="Mozilla/5.0 (Macintosh; Intel Mac OS X 10_15_7) AppleWebKit/537.36 (KHTML, like Gecko) Chrome/119.0.0.0 Safari/537.36" etag="hQNiLL7AxpqGnlihRyHh" version="22.1.5" type="device">
  <diagram name="Trang-1" id="Q-Sa13Cgf7B6fMHK3pV8">
    <mxGraphModel dx="1053" dy="687" grid="1" gridSize="10" guides="1" tooltips="1" connect="1" arrows="1" fold="1" page="1" pageScale="1" pageWidth="827" pageHeight="1169" math="0" shadow="0">
      <root>
        <mxCell id="0" />
        <mxCell id="1" parent="0" />
        <mxCell id="-iLtgWOrVOp-dnqqi-RX-3" style="edgeStyle=orthogonalEdgeStyle;rounded=0;orthogonalLoop=1;jettySize=auto;html=1;exitX=0.5;exitY=1;exitDx=0;exitDy=0;entryX=0.5;entryY=0;entryDx=0;entryDy=0;fontSize=14;" edge="1" parent="1" source="-iLtgWOrVOp-dnqqi-RX-4" target="-iLtgWOrVOp-dnqqi-RX-6">
          <mxGeometry relative="1" as="geometry" />
        </mxCell>
        <mxCell id="-iLtgWOrVOp-dnqqi-RX-4" value="strarts" style="rhombus;whiteSpace=wrap;html=1;" vertex="1" parent="1">
          <mxGeometry x="380" y="40" width="100" height="100" as="geometry" />
        </mxCell>
        <mxCell id="-iLtgWOrVOp-dnqqi-RX-5" style="edgeStyle=orthogonalEdgeStyle;rounded=0;orthogonalLoop=1;jettySize=auto;html=1;exitX=0.5;exitY=1;exitDx=0;exitDy=0;fontSize=14;" edge="1" parent="1" source="-iLtgWOrVOp-dnqqi-RX-6" target="-iLtgWOrVOp-dnqqi-RX-9">
          <mxGeometry relative="1" as="geometry" />
        </mxCell>
        <mxCell id="-iLtgWOrVOp-dnqqi-RX-6" value="&lt;font style=&quot;font-size: 14px;&quot;&gt;Sử dụng hàm &lt;code style=&quot;border: 0px solid rgb(217, 217, 227); box-sizing: border-box; --tw-border-spacing-x: 0; --tw-border-spacing-y: 0; --tw-translate-x: 0; --tw-translate-y: 0; --tw-rotate: 0; --tw-skew-x: 0; --tw-skew-y: 0; --tw-scale-x: 1; --tw-scale-y: 1; --tw-pan-x: ; --tw-pan-y: ; --tw-pinch-zoom: ; --tw-scroll-snap-strictness: proximity; --tw-gradient-from-position: ; --tw-gradient-via-position: ; --tw-gradient-to-position: ; --tw-ordinal: ; --tw-slashed-zero: ; --tw-numeric-figure: ; --tw-numeric-spacing: ; --tw-numeric-fraction: ; --tw-ring-inset: ; --tw-ring-offset-width: 0px; --tw-ring-offset-color: #fff; --tw-ring-color: rgba(69,89,164,0.5); --tw-ring-offset-shadow: 0 0 transparent; --tw-ring-shadow: 0 0 transparent; --tw-shadow: 0 0 transparent; --tw-shadow-colored: 0 0 transparent; --tw-blur: ; --tw-brightness: ; --tw-contrast: ; --tw-grayscale: ; --tw-hue-rotate: ; --tw-invert: ; --tw-saturate: ; --tw-sepia: ; --tw-drop-shadow: ; --tw-backdrop-blur: ; --tw-backdrop-brightness: ; --tw-backdrop-contrast: ; --tw-backdrop-grayscale: ; --tw-backdrop-hue-rotate: ; --tw-backdrop-invert: ; --tw-backdrop-opacity: ; --tw-backdrop-saturate: ; --tw-backdrop-sepia: ; color: var(--tw-prose-code); font-weight: 600; text-align: left; font-family: &amp;quot;Söhne Mono&amp;quot;, Monaco, &amp;quot;Andale Mono&amp;quot;, &amp;quot;Ubuntu Mono&amp;quot;, monospace !important;&quot;&gt;fopen&lt;/code&gt;&lt;span style=&quot;color: rgb(55, 65, 81); font-family: Söhne, ui-sans-serif, system-ui, -apple-system, &amp;quot;Segoe UI&amp;quot;, Roboto, Ubuntu, Cantarell, &amp;quot;Noto Sans&amp;quot;, sans-serif, &amp;quot;Helvetica Neue&amp;quot;, Arial, &amp;quot;Apple Color Emoji&amp;quot;, &amp;quot;Segoe UI Emoji&amp;quot;, &amp;quot;Segoe UI Symbol&amp;quot;, &amp;quot;Noto Color Emoji&amp;quot;; text-align: left;&quot;&gt; để mở file &quot;bt01.txt&quot; trong chế độ ghi (&quot;w&quot;).&lt;/span&gt;&lt;/font&gt;" style="rounded=0;whiteSpace=wrap;html=1;" vertex="1" parent="1">
          <mxGeometry x="328" y="190" width="195" height="60" as="geometry" />
        </mxCell>
        <mxCell id="-iLtgWOrVOp-dnqqi-RX-7" value="false" style="edgeStyle=orthogonalEdgeStyle;rounded=0;orthogonalLoop=1;jettySize=auto;html=1;exitX=1;exitY=0.5;exitDx=0;exitDy=0;entryX=0;entryY=0.5;entryDx=0;entryDy=0;fontSize=14;" edge="1" parent="1" source="-iLtgWOrVOp-dnqqi-RX-9">
          <mxGeometry relative="1" as="geometry">
            <mxPoint x="600" y="398" as="targetPoint" />
          </mxGeometry>
        </mxCell>
        <mxCell id="-iLtgWOrVOp-dnqqi-RX-8" style="edgeStyle=orthogonalEdgeStyle;rounded=0;orthogonalLoop=1;jettySize=auto;html=1;exitX=0.5;exitY=1;exitDx=0;exitDy=0;entryX=0.5;entryY=0;entryDx=0;entryDy=0;fontSize=15;" edge="1" parent="1" source="-iLtgWOrVOp-dnqqi-RX-9" target="-iLtgWOrVOp-dnqqi-RX-12">
          <mxGeometry relative="1" as="geometry" />
        </mxCell>
        <mxCell id="-iLtgWOrVOp-dnqqi-RX-9" value="không có lỗi mở file" style="rhombus;whiteSpace=wrap;html=1;fontSize=14;" vertex="1" parent="1">
          <mxGeometry x="370" y="340" width="124" height="110" as="geometry" />
        </mxCell>
        <mxCell id="-iLtgWOrVOp-dnqqi-RX-11" style="edgeStyle=orthogonalEdgeStyle;rounded=0;orthogonalLoop=1;jettySize=auto;html=1;exitX=0.5;exitY=1;exitDx=0;exitDy=0;entryX=0.5;entryY=0;entryDx=0;entryDy=0;fontSize=15;" edge="1" parent="1" source="-iLtgWOrVOp-dnqqi-RX-12" target="-iLtgWOrVOp-dnqqi-RX-14">
          <mxGeometry relative="1" as="geometry" />
        </mxCell>
        <mxCell id="-iLtgWOrVOp-dnqqi-RX-12" value="nhập chuỗi" style="rounded=0;whiteSpace=wrap;html=1;fontSize=15;" vertex="1" parent="1">
          <mxGeometry x="372" y="530" width="120" height="60" as="geometry" />
        </mxCell>
        <mxCell id="-iLtgWOrVOp-dnqqi-RX-13" style="edgeStyle=orthogonalEdgeStyle;rounded=0;orthogonalLoop=1;jettySize=auto;html=1;exitX=0.5;exitY=1;exitDx=0;exitDy=0;entryX=0.5;entryY=0;entryDx=0;entryDy=0;fontSize=15;" edge="1" parent="1" source="-iLtgWOrVOp-dnqqi-RX-14" target="-iLtgWOrVOp-dnqqi-RX-16">
          <mxGeometry relative="1" as="geometry" />
        </mxCell>
        <mxCell id="-iLtgWOrVOp-dnqqi-RX-14" value="fgets để đọc chuỗi và ghi vào biến&amp;nbsp;" style="rounded=0;whiteSpace=wrap;html=1;fontSize=15;" vertex="1" parent="1">
          <mxGeometry x="365" y="670" width="120" height="60" as="geometry" />
        </mxCell>
        <mxCell id="-iLtgWOrVOp-dnqqi-RX-15" style="edgeStyle=orthogonalEdgeStyle;rounded=0;orthogonalLoop=1;jettySize=auto;html=1;exitX=0.5;exitY=1;exitDx=0;exitDy=0;entryX=0.5;entryY=0;entryDx=0;entryDy=0;fontSize=15;" edge="1" parent="1" source="-iLtgWOrVOp-dnqqi-RX-16" target="-iLtgWOrVOp-dnqqi-RX-18">
          <mxGeometry relative="1" as="geometry" />
        </mxCell>
        <mxCell id="-iLtgWOrVOp-dnqqi-RX-16" value="fprintf" style="rounded=0;whiteSpace=wrap;html=1;fontSize=15;" vertex="1" parent="1">
          <mxGeometry x="365" y="780" width="120" height="60" as="geometry" />
        </mxCell>
        <mxCell id="-iLtgWOrVOp-dnqqi-RX-17" style="edgeStyle=orthogonalEdgeStyle;rounded=0;orthogonalLoop=1;jettySize=auto;html=1;exitX=0.5;exitY=1;exitDx=0;exitDy=0;entryX=0.5;entryY=0;entryDx=0;entryDy=0;fontSize=15;" edge="1" parent="1" source="-iLtgWOrVOp-dnqqi-RX-18" target="-iLtgWOrVOp-dnqqi-RX-20">
          <mxGeometry relative="1" as="geometry" />
        </mxCell>
        <mxCell id="-iLtgWOrVOp-dnqqi-RX-18" value="fclose" style="rounded=0;whiteSpace=wrap;html=1;fontSize=15;" vertex="1" parent="1">
          <mxGeometry x="365" y="890" width="120" height="60" as="geometry" />
        </mxCell>
        <mxCell id="-iLtgWOrVOp-dnqqi-RX-19" style="edgeStyle=orthogonalEdgeStyle;rounded=0;orthogonalLoop=1;jettySize=auto;html=1;exitX=0.5;exitY=1;exitDx=0;exitDy=0;fontSize=15;" edge="1" parent="1" source="-iLtgWOrVOp-dnqqi-RX-20" target="-iLtgWOrVOp-dnqqi-RX-21">
          <mxGeometry relative="1" as="geometry" />
        </mxCell>
        <mxCell id="-iLtgWOrVOp-dnqqi-RX-20" value=" chuỗi đã được ghi vào file &quot;bt01.txt&quot; thành công." style="rounded=0;whiteSpace=wrap;html=1;fontSize=15;" vertex="1" parent="1">
          <mxGeometry x="358" y="990" width="134" height="80" as="geometry" />
        </mxCell>
        <mxCell id="-iLtgWOrVOp-dnqqi-RX-21" value="End" style="ellipse;whiteSpace=wrap;html=1;fontSize=15;" vertex="1" parent="1">
          <mxGeometry x="365" y="1120" width="120" height="80" as="geometry" />
        </mxCell>
        <mxCell id="-iLtgWOrVOp-dnqqi-RX-24" style="edgeStyle=orthogonalEdgeStyle;rounded=0;orthogonalLoop=1;jettySize=auto;html=1;entryX=1;entryY=0.5;entryDx=0;entryDy=0;" edge="1" parent="1" source="-iLtgWOrVOp-dnqqi-RX-22" target="-iLtgWOrVOp-dnqqi-RX-21">
          <mxGeometry relative="1" as="geometry">
            <Array as="points">
              <mxPoint x="640" y="1160" />
            </Array>
          </mxGeometry>
        </mxCell>
        <mxCell id="-iLtgWOrVOp-dnqqi-RX-22" value="In thông báo lỗi" style="shape=parallelogram;perimeter=parallelogramPerimeter;whiteSpace=wrap;html=1;fixedSize=1;" vertex="1" parent="1">
          <mxGeometry x="590" y="370" width="120" height="60" as="geometry" />
        </mxCell>
      </root>
    </mxGraphModel>
  </diagram>
</mxfile>
